<?xml version="1.0" encoding="utf-8" standalone="no"?>
<!DOCTYPE svg PUBLIC "-//W3C//DTD SVG 1.1//EN"
  "http://www.w3.org/Graphics/SVG/1.1/DTD/svg11.dtd">
<svg xmlns:xlink="http://www.w3.org/1999/xlink" width="1080pt" height="720pt" viewBox="0 0 1080 720" xmlns="http://www.w3.org/2000/svg" version="1.1">
 <metadata>
  <rdf:RDF xmlns:dc="http://purl.org/dc/elements/1.1/" xmlns:cc="http://creativecommons.org/ns#" xmlns:rdf="http://www.w3.org/1999/02/22-rdf-syntax-ns#">
   <cc:Work>
    <dc:type rdf:resource="http://purl.org/dc/dcmitype/StillImage"/>
    <dc:date>2023-07-17T16:09:05.709555</dc:date>
    <dc:format>image/svg+xml</dc:format>
    <dc:creator>
     <cc:Agent>
      <dc:title>Matplotlib v3.6.2, https://matplotlib.org/</dc:title>
     </cc:Agent>
    </dc:creator>
   </cc:Work>
  </rdf:RDF>
 </metadata>
 <defs>
  <style type="text/css">*{stroke-linejoin: round; stroke-linecap: butt}</style>
 </defs>
 <g id="figure_1">
  <g id="patch_1">
   <path d="M 0 720 
L 1080 720 
L 1080 0 
L 0 0 
z
" style="fill: #ffffff"/>
  </g>
  <g id="axes_1">
   <g id="patch_2">
    <path d="M 135 640.8 
L 972 640.8 
L 972 86.4 
L 135 86.4 
z
" style="fill: #ffffff"/>
   </g>
   <g id="patch_3">
    <path d="M 173.045455 640.8 
L 179.084416 640.8 
L 179.084416 610.457118 
L 173.045455 610.457118 
z
" clip-path="url(#p7c00fbafc7)" style="fill: #1f77b4"/>
   </g>
   <g id="patch_4">
    <path d="M 233.435065 640.8 
L 239.474026 640.8 
L 239.474026 615.032229 
L 233.435065 615.032229 
z
" clip-path="url(#p7c00fbafc7)" style="fill: #1f77b4"/>
   </g>
   <g id="patch_5">
    <path d="M 293.824675 640.8 
L 299.863636 640.8 
L 299.863636 517.544515 
L 293.824675 517.544515 
z
" clip-path="url(#p7c00fbafc7)" style="fill: #1f77b4"/>
   </g>
   <g id="patch_6">
    <path d="M 354.214286 640.8 
L 360.253247 640.8 
L 360.253247 622.242119 
L 354.214286 622.242119 
z
" clip-path="url(#p7c00fbafc7)" style="fill: #1f77b4"/>
   </g>
   <g id="patch_7">
    <path d="M 414.603896 640.8 
L 420.642857 640.8 
L 420.642857 590.875866 
L 414.603896 590.875866 
z
" clip-path="url(#p7c00fbafc7)" style="fill: #1f77b4"/>
   </g>
   <g id="patch_8">
    <path d="M 474.993506 640.8 
L 481.032468 640.8 
L 481.032468 614.228315 
L 474.993506 614.228315 
z
" clip-path="url(#p7c00fbafc7)" style="fill: #1f77b4"/>
   </g>
   <g id="patch_9">
    <path d="M 535.383117 640.8 
L 541.422078 640.8 
L 541.422078 608.809129 
L 535.383117 608.809129 
z
" clip-path="url(#p7c00fbafc7)" style="fill: #1f77b4"/>
   </g>
   <g id="patch_10">
    <path d="M 595.772727 640.8 
L 601.811688 640.8 
L 601.811688 595.946378 
L 595.772727 595.946378 
z
" clip-path="url(#p7c00fbafc7)" style="fill: #1f77b4"/>
   </g>
   <g id="patch_11">
    <path d="M 656.162338 640.8 
L 662.201299 640.8 
L 662.201299 464.986306 
L 656.162338 464.986306 
z
" clip-path="url(#p7c00fbafc7)" style="fill: #1f77b4"/>
   </g>
   <g id="patch_12">
    <path d="M 716.551948 640.8 
L 722.590909 640.8 
L 722.590909 596.539364 
L 716.551948 596.539364 
z
" clip-path="url(#p7c00fbafc7)" style="fill: #1f77b4"/>
   </g>
   <g id="patch_13">
    <path d="M 776.941558 640.8 
L 782.980519 640.8 
L 782.980519 368.307542 
L 776.941558 368.307542 
z
" clip-path="url(#p7c00fbafc7)" style="fill: #1f77b4"/>
   </g>
   <g id="patch_14">
    <path d="M 837.331169 640.8 
L 843.37013 640.8 
L 843.37013 448.557751 
L 837.331169 448.557751 
z
" clip-path="url(#p7c00fbafc7)" style="fill: #1f77b4"/>
   </g>
   <g id="patch_15">
    <path d="M 897.720779 640.8 
L 903.75974 640.8 
L 903.75974 490.569095 
L 897.720779 490.569095 
z
" clip-path="url(#p7c00fbafc7)" style="fill: #1f77b4"/>
   </g>
   <g id="patch_16">
    <path d="M 179.084416 640.8 
L 185.123377 640.8 
L 185.123377 609.292218 
L 179.084416 609.292218 
z
" clip-path="url(#p7c00fbafc7)" style="fill: #ff7f0e"/>
   </g>
   <g id="patch_17">
    <path d="M 239.474026 640.8 
L 245.512987 640.8 
L 245.512987 611.997282 
L 239.474026 611.997282 
z
" clip-path="url(#p7c00fbafc7)" style="fill: #ff7f0e"/>
   </g>
   <g id="patch_18">
    <path d="M 299.863636 640.8 
L 305.902597 640.8 
L 305.902597 484.236925 
L 299.863636 484.236925 
z
" clip-path="url(#p7c00fbafc7)" style="fill: #ff7f0e"/>
   </g>
   <g id="patch_19">
    <path d="M 360.253247 640.8 
L 366.292208 640.8 
L 366.292208 597.060916 
L 360.253247 597.060916 
z
" clip-path="url(#p7c00fbafc7)" style="fill: #ff7f0e"/>
   </g>
   <g id="patch_20">
    <path d="M 420.642857 640.8 
L 426.681818 640.8 
L 426.681818 603.227987 
L 420.642857 603.227987 
z
" clip-path="url(#p7c00fbafc7)" style="fill: #ff7f0e"/>
   </g>
   <g id="patch_21">
    <path d="M 481.032468 640.8 
L 487.071429 640.8 
L 487.071429 610.797737 
L 481.032468 610.797737 
z
" clip-path="url(#p7c00fbafc7)" style="fill: #ff7f0e"/>
   </g>
   <g id="patch_22">
    <path d="M 541.422078 640.8 
L 547.461039 640.8 
L 547.461039 610.993855 
L 541.422078 610.993855 
z
" clip-path="url(#p7c00fbafc7)" style="fill: #ff7f0e"/>
   </g>
   <g id="patch_23">
    <path d="M 601.811688 640.8 
L 607.850649 640.8 
L 607.850649 596.903691 
L 601.811688 596.903691 
z
" clip-path="url(#p7c00fbafc7)" style="fill: #ff7f0e"/>
   </g>
   <g id="patch_24">
    <path d="M 662.201299 640.8 
L 668.24026 640.8 
L 668.24026 461.445684 
L 662.201299 461.445684 
z
" clip-path="url(#p7c00fbafc7)" style="fill: #ff7f0e"/>
   </g>
   <g id="patch_25">
    <path d="M 722.590909 640.8 
L 728.62987 640.8 
L 728.62987 592.5189 
L 722.590909 592.5189 
z
" clip-path="url(#p7c00fbafc7)" style="fill: #ff7f0e"/>
   </g>
   <g id="patch_26">
    <path d="M 782.980519 640.8 
L 789.019481 640.8 
L 789.019481 451.583814 
L 782.980519 451.583814 
z
" clip-path="url(#p7c00fbafc7)" style="fill: #ff7f0e"/>
   </g>
   <g id="patch_27">
    <path d="M 843.37013 640.8 
L 849.409091 640.8 
L 849.409091 592.903821 
L 843.37013 592.903821 
z
" clip-path="url(#p7c00fbafc7)" style="fill: #ff7f0e"/>
   </g>
   <g id="patch_28">
    <path d="M 903.75974 640.8 
L 909.798701 640.8 
L 909.798701 447.519934 
L 903.75974 447.519934 
z
" clip-path="url(#p7c00fbafc7)" style="fill: #ff7f0e"/>
   </g>
   <g id="patch_29">
    <path d="M 185.123377 640.8 
L 191.162338 640.8 
L 191.162338 608.433203 
L 185.123377 608.433203 
z
" clip-path="url(#p7c00fbafc7)" style="fill: #2ca02c"/>
   </g>
   <g id="patch_30">
    <path d="M 245.512987 640.8 
L 251.551948 640.8 
L 251.551948 612.63712 
L 245.512987 612.63712 
z
" clip-path="url(#p7c00fbafc7)" style="fill: #2ca02c"/>
   </g>
   <g id="patch_31">
    <path d="M 305.902597 640.8 
L 311.941558 640.8 
L 311.941558 459.925213 
L 305.902597 459.925213 
z
" clip-path="url(#p7c00fbafc7)" style="fill: #2ca02c"/>
   </g>
   <g id="patch_32">
    <path d="M 366.292208 640.8 
L 372.331169 640.8 
L 372.331169 597.013735 
L 366.292208 597.013735 
z
" clip-path="url(#p7c00fbafc7)" style="fill: #2ca02c"/>
   </g>
   <g id="patch_33">
    <path d="M 426.681818 640.8 
L 432.720779 640.8 
L 432.720779 259.478054 
L 426.681818 259.478054 
z
" clip-path="url(#p7c00fbafc7)" style="fill: #2ca02c"/>
   </g>
   <g id="patch_34">
    <path d="M 487.071429 640.8 
L 493.11039 640.8 
L 493.11039 610.761924 
L 487.071429 610.761924 
z
" clip-path="url(#p7c00fbafc7)" style="fill: #2ca02c"/>
   </g>
   <g id="patch_35">
    <path d="M 547.461039 640.8 
L 553.5 640.8 
L 553.5 608.356483 
L 547.461039 608.356483 
z
" clip-path="url(#p7c00fbafc7)" style="fill: #2ca02c"/>
   </g>
   <g id="patch_36">
    <path d="M 607.850649 640.8 
L 613.88961 640.8 
L 613.88961 592.11972 
L 607.850649 592.11972 
z
" clip-path="url(#p7c00fbafc7)" style="fill: #2ca02c"/>
   </g>
   <g id="patch_37">
    <path d="M 668.24026 640.8 
L 674.279221 640.8 
L 674.279221 439.126577 
L 668.24026 439.126577 
z
" clip-path="url(#p7c00fbafc7)" style="fill: #2ca02c"/>
   </g>
   <g id="patch_38">
    <path d="M 728.62987 640.8 
L 734.668831 640.8 
L 734.668831 585.253642 
L 728.62987 585.253642 
z
" clip-path="url(#p7c00fbafc7)" style="fill: #2ca02c"/>
   </g>
   <g id="patch_39">
    <path d="M 789.019481 640.8 
L 795.058442 640.8 
L 795.058442 236.940125 
L 789.019481 236.940125 
z
" clip-path="url(#p7c00fbafc7)" style="fill: #2ca02c"/>
   </g>
   <g id="patch_40">
    <path d="M 849.409091 640.8 
L 855.448052 640.8 
L 855.448052 112.8 
L 849.409091 112.8 
z
" clip-path="url(#p7c00fbafc7)" style="fill: #2ca02c"/>
   </g>
   <g id="patch_41">
    <path d="M 909.798701 640.8 
L 915.837662 640.8 
L 915.837662 424.724554 
L 909.798701 424.724554 
z
" clip-path="url(#p7c00fbafc7)" style="fill: #2ca02c"/>
   </g>
   <g id="patch_42">
    <path d="M 191.162338 640.8 
L 197.201299 640.8 
L 197.201299 610.076743 
L 191.162338 610.076743 
z
" clip-path="url(#p7c00fbafc7)" style="fill: #d62728"/>
   </g>
   <g id="patch_43">
    <path d="M 251.551948 640.8 
L 257.590909 640.8 
L 257.590909 617.016013 
L 251.551948 617.016013 
z
" clip-path="url(#p7c00fbafc7)" style="fill: #d62728"/>
   </g>
   <g id="patch_44">
    <path d="M 311.941558 640.8 
L 317.980519 640.8 
L 317.980519 571.378368 
L 311.941558 571.378368 
z
" clip-path="url(#p7c00fbafc7)" style="fill: #d62728"/>
   </g>
   <g id="patch_45">
    <path d="M 372.331169 640.8 
L 378.37013 640.8 
L 378.37013 618.523802 
L 372.331169 618.523802 
z
" clip-path="url(#p7c00fbafc7)" style="fill: #d62728"/>
   </g>
   <g id="patch_46">
    <path d="M 432.720779 640.8 
L 438.75974 640.8 
L 438.75974 614.90039 
L 432.720779 614.90039 
z
" clip-path="url(#p7c00fbafc7)" style="fill: #d62728"/>
   </g>
   <g id="patch_47">
    <path d="M 493.11039 640.8 
L 499.149351 640.8 
L 499.149351 614.243237 
L 493.11039 614.243237 
z
" clip-path="url(#p7c00fbafc7)" style="fill: #d62728"/>
   </g>
   <g id="patch_48">
    <path d="M 553.5 640.8 
L 559.538961 640.8 
L 559.538961 611.38303 
L 553.5 611.38303 
z
" clip-path="url(#p7c00fbafc7)" style="fill: #d62728"/>
   </g>
   <g id="patch_49">
    <path d="M 613.88961 640.8 
L 619.928571 640.8 
L 619.928571 600.245207 
L 613.88961 600.245207 
z
" clip-path="url(#p7c00fbafc7)" style="fill: #d62728"/>
   </g>
   <g id="patch_50">
    <path d="M 674.279221 640.8 
L 680.318182 640.8 
L 680.318182 519.800004 
L 674.279221 519.800004 
z
" clip-path="url(#p7c00fbafc7)" style="fill: #d62728"/>
   </g>
   <g id="patch_51">
    <path d="M 734.668831 640.8 
L 740.707792 640.8 
L 740.707792 608.047129 
L 734.668831 608.047129 
z
" clip-path="url(#p7c00fbafc7)" style="fill: #d62728"/>
   </g>
   <g id="patch_52">
    <path d="M 795.058442 640.8 
L 801.097403 640.8 
L 801.097403 432.044533 
L 795.058442 432.044533 
z
" clip-path="url(#p7c00fbafc7)" style="fill: #d62728"/>
   </g>
   <g id="patch_53">
    <path d="M 855.448052 640.8 
L 861.487013 640.8 
L 861.487013 548.329921 
L 855.448052 548.329921 
z
" clip-path="url(#p7c00fbafc7)" style="fill: #d62728"/>
   </g>
   <g id="patch_54">
    <path d="M 915.837662 640.8 
L 921.876623 640.8 
L 921.876623 536.028166 
L 915.837662 536.028166 
z
" clip-path="url(#p7c00fbafc7)" style="fill: #d62728"/>
   </g>
   <g id="patch_55">
    <path d="M 197.201299 640.8 
L 203.24026 640.8 
L 203.24026 613.779066 
L 197.201299 613.779066 
z
" clip-path="url(#p7c00fbafc7)" style="fill: #9467bd"/>
   </g>
   <g id="patch_56">
    <path d="M 257.590909 640.8 
L 263.62987 640.8 
L 263.62987 614.343832 
L 257.590909 614.343832 
z
" clip-path="url(#p7c00fbafc7)" style="fill: #9467bd"/>
   </g>
   <g id="patch_57">
    <path d="M 317.980519 640.8 
L 324.019481 640.8 
L 324.019481 613.170582 
L 317.980519 613.170582 
z
" clip-path="url(#p7c00fbafc7)" style="fill: #9467bd"/>
   </g>
   <g id="patch_58">
    <path d="M 378.37013 640.8 
L 384.409091 640.8 
L 384.409091 614.619008 
L 378.37013 614.619008 
z
" clip-path="url(#p7c00fbafc7)" style="fill: #9467bd"/>
   </g>
   <g id="patch_59">
    <path d="M 438.75974 640.8 
L 444.798701 640.8 
L 444.798701 614.173795 
L 438.75974 614.173795 
z
" clip-path="url(#p7c00fbafc7)" style="fill: #9467bd"/>
   </g>
   <g id="patch_60">
    <path d="M 499.149351 640.8 
L 505.188312 640.8 
L 505.188312 614.183549 
L 499.149351 614.183549 
z
" clip-path="url(#p7c00fbafc7)" style="fill: #9467bd"/>
   </g>
   <g id="patch_61">
    <path d="M 559.538961 640.8 
L 565.577922 640.8 
L 565.577922 617.863716 
L 559.538961 617.863716 
z
" clip-path="url(#p7c00fbafc7)" style="fill: #9467bd"/>
   </g>
   <g id="patch_62">
    <path d="M 619.928571 640.8 
L 625.967532 640.8 
L 625.967532 617.437928 
L 619.928571 617.437928 
z
" clip-path="url(#p7c00fbafc7)" style="fill: #9467bd"/>
   </g>
   <g id="patch_63">
    <path d="M 680.318182 640.8 
L 686.357143 640.8 
L 686.357143 603.34448 
L 680.318182 603.34448 
z
" clip-path="url(#p7c00fbafc7)" style="fill: #9467bd"/>
   </g>
   <g id="patch_64">
    <path d="M 740.707792 640.8 
L 746.746753 640.8 
L 746.746753 611.570217 
L 740.707792 611.570217 
z
" clip-path="url(#p7c00fbafc7)" style="fill: #9467bd"/>
   </g>
   <g id="patch_65">
    <path d="M 801.097403 640.8 
L 807.136364 640.8 
L 807.136364 599.414217 
L 801.097403 599.414217 
z
" clip-path="url(#p7c00fbafc7)" style="fill: #9467bd"/>
   </g>
   <g id="patch_66">
    <path d="M 861.487013 640.8 
L 867.525974 640.8 
L 867.525974 614.844701 
L 861.487013 614.844701 
z
" clip-path="url(#p7c00fbafc7)" style="fill: #9467bd"/>
   </g>
   <g id="patch_67">
    <path d="M 921.876623 640.8 
L 927.915584 640.8 
L 927.915584 606.047251 
L 921.876623 606.047251 
z
" clip-path="url(#p7c00fbafc7)" style="fill: #9467bd"/>
   </g>
   <g id="patch_68">
    <path d="M 203.24026 640.8 
L 209.279221 640.8 
L 209.279221 610.381043 
L 203.24026 610.381043 
z
" clip-path="url(#p7c00fbafc7)" style="fill: #8c564b"/>
   </g>
   <g id="patch_69">
    <path d="M 263.62987 640.8 
L 269.668831 640.8 
L 269.668831 614.798002 
L 263.62987 614.798002 
z
" clip-path="url(#p7c00fbafc7)" style="fill: #8c564b"/>
   </g>
   <g id="patch_70">
    <path d="M 324.019481 640.8 
L 330.058442 640.8 
L 330.058442 516.032511 
L 324.019481 516.032511 
z
" clip-path="url(#p7c00fbafc7)" style="fill: #8c564b"/>
   </g>
   <g id="patch_71">
    <path d="M 384.409091 640.8 
L 390.448052 640.8 
L 390.448052 623.520501 
L 384.409091 623.520501 
z
" clip-path="url(#p7c00fbafc7)" style="fill: #8c564b"/>
   </g>
   <g id="patch_72">
    <path d="M 444.798701 640.8 
L 450.837662 640.8 
L 450.837662 568.234216 
L 444.798701 568.234216 
z
" clip-path="url(#p7c00fbafc7)" style="fill: #8c564b"/>
   </g>
   <g id="patch_73">
    <path d="M 505.188312 640.8 
L 511.227273 640.8 
L 511.227273 613.992547 
L 505.188312 613.992547 
z
" clip-path="url(#p7c00fbafc7)" style="fill: #8c564b"/>
   </g>
   <g id="patch_74">
    <path d="M 565.577922 640.8 
L 571.616883 640.8 
L 571.616883 613.783223 
L 565.577922 613.783223 
z
" clip-path="url(#p7c00fbafc7)" style="fill: #8c564b"/>
   </g>
   <g id="patch_75">
    <path d="M 625.967532 640.8 
L 632.006494 640.8 
L 632.006494 601.755115 
L 625.967532 601.755115 
z
" clip-path="url(#p7c00fbafc7)" style="fill: #8c564b"/>
   </g>
   <g id="patch_76">
    <path d="M 686.357143 640.8 
L 692.396104 640.8 
L 692.396104 464.154412 
L 686.357143 464.154412 
z
" clip-path="url(#p7c00fbafc7)" style="fill: #8c564b"/>
   </g>
   <g id="patch_77">
    <path d="M 746.746753 640.8 
L 752.785714 640.8 
L 752.785714 596.018303 
L 746.746753 596.018303 
z
" clip-path="url(#p7c00fbafc7)" style="fill: #8c564b"/>
   </g>
   <g id="patch_78">
    <path d="M 807.136364 640.8 
L 813.175325 640.8 
L 813.175325 366.505025 
L 807.136364 366.505025 
z
" clip-path="url(#p7c00fbafc7)" style="fill: #8c564b"/>
   </g>
   <g id="patch_79">
    <path d="M 867.525974 640.8 
L 873.564935 640.8 
L 873.564935 430.700505 
L 867.525974 430.700505 
z
" clip-path="url(#p7c00fbafc7)" style="fill: #8c564b"/>
   </g>
   <g id="patch_80">
    <path d="M 927.915584 640.8 
L 933.954545 640.8 
L 933.954545 489.66044 
L 927.915584 489.66044 
z
" clip-path="url(#p7c00fbafc7)" style="fill: #8c564b"/>
   </g>
   <g id="matplotlib.axis_1">
    <g id="xtick_1">
     <g id="line2d_1">
      <defs>
       <path id="m9f288c7bc0" d="M 0 0 
L 0 3.5 
" style="stroke: #000000; stroke-width: 0.8"/>
      </defs>
      <g>
       <use xlink:href="#m9f288c7bc0" x="170.025974" y="640.8" style="stroke: #000000; stroke-width: 0.8"/>
      </g>
     </g>
     <g id="text_1">
      <!-- hamiltonian_simulation -->
      <g transform="translate(111.771287 655.398438) scale(0.1 -0.1)">
       <defs>
        <path id="DejaVuSans-68" d="M 3513 2113 
L 3513 0 
L 2938 0 
L 2938 2094 
Q 2938 2591 2744 2837 
Q 2550 3084 2163 3084 
Q 1697 3084 1428 2787 
Q 1159 2491 1159 1978 
L 1159 0 
L 581 0 
L 581 4863 
L 1159 4863 
L 1159 2956 
Q 1366 3272 1645 3428 
Q 1925 3584 2291 3584 
Q 2894 3584 3203 3211 
Q 3513 2838 3513 2113 
z
" transform="scale(0.015625)"/>
        <path id="DejaVuSans-61" d="M 2194 1759 
Q 1497 1759 1228 1600 
Q 959 1441 959 1056 
Q 959 750 1161 570 
Q 1363 391 1709 391 
Q 2188 391 2477 730 
Q 2766 1069 2766 1631 
L 2766 1759 
L 2194 1759 
z
M 3341 1997 
L 3341 0 
L 2766 0 
L 2766 531 
Q 2569 213 2275 61 
Q 1981 -91 1556 -91 
Q 1019 -91 701 211 
Q 384 513 384 1019 
Q 384 1609 779 1909 
Q 1175 2209 1959 2209 
L 2766 2209 
L 2766 2266 
Q 2766 2663 2505 2880 
Q 2244 3097 1772 3097 
Q 1472 3097 1187 3025 
Q 903 2953 641 2809 
L 641 3341 
Q 956 3463 1253 3523 
Q 1550 3584 1831 3584 
Q 2591 3584 2966 3190 
Q 3341 2797 3341 1997 
z
" transform="scale(0.015625)"/>
        <path id="DejaVuSans-6d" d="M 3328 2828 
Q 3544 3216 3844 3400 
Q 4144 3584 4550 3584 
Q 5097 3584 5394 3201 
Q 5691 2819 5691 2113 
L 5691 0 
L 5113 0 
L 5113 2094 
Q 5113 2597 4934 2840 
Q 4756 3084 4391 3084 
Q 3944 3084 3684 2787 
Q 3425 2491 3425 1978 
L 3425 0 
L 2847 0 
L 2847 2094 
Q 2847 2600 2669 2842 
Q 2491 3084 2119 3084 
Q 1678 3084 1418 2786 
Q 1159 2488 1159 1978 
L 1159 0 
L 581 0 
L 581 3500 
L 1159 3500 
L 1159 2956 
Q 1356 3278 1631 3431 
Q 1906 3584 2284 3584 
Q 2666 3584 2933 3390 
Q 3200 3197 3328 2828 
z
" transform="scale(0.015625)"/>
        <path id="DejaVuSans-69" d="M 603 3500 
L 1178 3500 
L 1178 0 
L 603 0 
L 603 3500 
z
M 603 4863 
L 1178 4863 
L 1178 4134 
L 603 4134 
L 603 4863 
z
" transform="scale(0.015625)"/>
        <path id="DejaVuSans-6c" d="M 603 4863 
L 1178 4863 
L 1178 0 
L 603 0 
L 603 4863 
z
" transform="scale(0.015625)"/>
        <path id="DejaVuSans-74" d="M 1172 4494 
L 1172 3500 
L 2356 3500 
L 2356 3053 
L 1172 3053 
L 1172 1153 
Q 1172 725 1289 603 
Q 1406 481 1766 481 
L 2356 481 
L 2356 0 
L 1766 0 
Q 1100 0 847 248 
Q 594 497 594 1153 
L 594 3053 
L 172 3053 
L 172 3500 
L 594 3500 
L 594 4494 
L 1172 4494 
z
" transform="scale(0.015625)"/>
        <path id="DejaVuSans-6f" d="M 1959 3097 
Q 1497 3097 1228 2736 
Q 959 2375 959 1747 
Q 959 1119 1226 758 
Q 1494 397 1959 397 
Q 2419 397 2687 759 
Q 2956 1122 2956 1747 
Q 2956 2369 2687 2733 
Q 2419 3097 1959 3097 
z
M 1959 3584 
Q 2709 3584 3137 3096 
Q 3566 2609 3566 1747 
Q 3566 888 3137 398 
Q 2709 -91 1959 -91 
Q 1206 -91 779 398 
Q 353 888 353 1747 
Q 353 2609 779 3096 
Q 1206 3584 1959 3584 
z
" transform="scale(0.015625)"/>
        <path id="DejaVuSans-6e" d="M 3513 2113 
L 3513 0 
L 2938 0 
L 2938 2094 
Q 2938 2591 2744 2837 
Q 2550 3084 2163 3084 
Q 1697 3084 1428 2787 
Q 1159 2491 1159 1978 
L 1159 0 
L 581 0 
L 581 3500 
L 1159 3500 
L 1159 2956 
Q 1366 3272 1645 3428 
Q 1925 3584 2291 3584 
Q 2894 3584 3203 3211 
Q 3513 2838 3513 2113 
z
" transform="scale(0.015625)"/>
        <path id="DejaVuSans-5f" d="M 3263 -1063 
L 3263 -1509 
L -63 -1509 
L -63 -1063 
L 3263 -1063 
z
" transform="scale(0.015625)"/>
        <path id="DejaVuSans-73" d="M 2834 3397 
L 2834 2853 
Q 2591 2978 2328 3040 
Q 2066 3103 1784 3103 
Q 1356 3103 1142 2972 
Q 928 2841 928 2578 
Q 928 2378 1081 2264 
Q 1234 2150 1697 2047 
L 1894 2003 
Q 2506 1872 2764 1633 
Q 3022 1394 3022 966 
Q 3022 478 2636 193 
Q 2250 -91 1575 -91 
Q 1294 -91 989 -36 
Q 684 19 347 128 
L 347 722 
Q 666 556 975 473 
Q 1284 391 1588 391 
Q 1994 391 2212 530 
Q 2431 669 2431 922 
Q 2431 1156 2273 1281 
Q 2116 1406 1581 1522 
L 1381 1569 
Q 847 1681 609 1914 
Q 372 2147 372 2553 
Q 372 3047 722 3315 
Q 1072 3584 1716 3584 
Q 2034 3584 2315 3537 
Q 2597 3491 2834 3397 
z
" transform="scale(0.015625)"/>
        <path id="DejaVuSans-75" d="M 544 1381 
L 544 3500 
L 1119 3500 
L 1119 1403 
Q 1119 906 1312 657 
Q 1506 409 1894 409 
Q 2359 409 2629 706 
Q 2900 1003 2900 1516 
L 2900 3500 
L 3475 3500 
L 3475 0 
L 2900 0 
L 2900 538 
Q 2691 219 2414 64 
Q 2138 -91 1772 -91 
Q 1169 -91 856 284 
Q 544 659 544 1381 
z
M 1991 3584 
L 1991 3584 
z
" transform="scale(0.015625)"/>
       </defs>
       <use xlink:href="#DejaVuSans-68"/>
       <use xlink:href="#DejaVuSans-61" x="63.378906"/>
       <use xlink:href="#DejaVuSans-6d" x="124.658203"/>
       <use xlink:href="#DejaVuSans-69" x="222.070312"/>
       <use xlink:href="#DejaVuSans-6c" x="249.853516"/>
       <use xlink:href="#DejaVuSans-74" x="277.636719"/>
       <use xlink:href="#DejaVuSans-6f" x="316.845703"/>
       <use xlink:href="#DejaVuSans-6e" x="378.027344"/>
       <use xlink:href="#DejaVuSans-69" x="441.40625"/>
       <use xlink:href="#DejaVuSans-61" x="469.189453"/>
       <use xlink:href="#DejaVuSans-6e" x="530.46875"/>
       <use xlink:href="#DejaVuSans-5f" x="593.847656"/>
       <use xlink:href="#DejaVuSans-73" x="643.847656"/>
       <use xlink:href="#DejaVuSans-69" x="695.947266"/>
       <use xlink:href="#DejaVuSans-6d" x="723.730469"/>
       <use xlink:href="#DejaVuSans-75" x="821.142578"/>
       <use xlink:href="#DejaVuSans-6c" x="884.521484"/>
       <use xlink:href="#DejaVuSans-61" x="912.304688"/>
       <use xlink:href="#DejaVuSans-74" x="973.583984"/>
       <use xlink:href="#DejaVuSans-69" x="1012.792969"/>
       <use xlink:href="#DejaVuSans-6f" x="1040.576172"/>
       <use xlink:href="#DejaVuSans-6e" x="1101.757812"/>
      </g>
     </g>
    </g>
    <g id="xtick_2">
     <g id="line2d_2">
      <g>
       <use xlink:href="#m9f288c7bc0" x="230.415584" y="640.8" style="stroke: #000000; stroke-width: 0.8"/>
      </g>
     </g>
     <g id="text_2">
      <!-- ising -->
      <g transform="translate(218.689803 655.398438) scale(0.1 -0.1)">
       <defs>
        <path id="DejaVuSans-67" d="M 2906 1791 
Q 2906 2416 2648 2759 
Q 2391 3103 1925 3103 
Q 1463 3103 1205 2759 
Q 947 2416 947 1791 
Q 947 1169 1205 825 
Q 1463 481 1925 481 
Q 2391 481 2648 825 
Q 2906 1169 2906 1791 
z
M 3481 434 
Q 3481 -459 3084 -895 
Q 2688 -1331 1869 -1331 
Q 1566 -1331 1297 -1286 
Q 1028 -1241 775 -1147 
L 775 -588 
Q 1028 -725 1275 -790 
Q 1522 -856 1778 -856 
Q 2344 -856 2625 -561 
Q 2906 -266 2906 331 
L 2906 616 
Q 2728 306 2450 153 
Q 2172 0 1784 0 
Q 1141 0 747 490 
Q 353 981 353 1791 
Q 353 2603 747 3093 
Q 1141 3584 1784 3584 
Q 2172 3584 2450 3431 
Q 2728 3278 2906 2969 
L 2906 3500 
L 3481 3500 
L 3481 434 
z
" transform="scale(0.015625)"/>
       </defs>
       <use xlink:href="#DejaVuSans-69"/>
       <use xlink:href="#DejaVuSans-73" x="27.783203"/>
       <use xlink:href="#DejaVuSans-69" x="79.882812"/>
       <use xlink:href="#DejaVuSans-6e" x="107.666016"/>
       <use xlink:href="#DejaVuSans-67" x="171.044922"/>
      </g>
     </g>
    </g>
    <g id="xtick_3">
     <g id="line2d_3">
      <g>
       <use xlink:href="#m9f288c7bc0" x="290.805195" y="640.8" style="stroke: #000000; stroke-width: 0.8"/>
      </g>
     </g>
     <g id="text_3">
      <!-- qknn -->
      <g transform="translate(278.398164 655.398438) scale(0.1 -0.1)">
       <defs>
        <path id="DejaVuSans-71" d="M 947 1747 
Q 947 1113 1208 752 
Q 1469 391 1925 391 
Q 2381 391 2643 752 
Q 2906 1113 2906 1747 
Q 2906 2381 2643 2742 
Q 2381 3103 1925 3103 
Q 1469 3103 1208 2742 
Q 947 2381 947 1747 
z
M 2906 525 
Q 2725 213 2448 61 
Q 2172 -91 1784 -91 
Q 1150 -91 751 415 
Q 353 922 353 1747 
Q 353 2572 751 3078 
Q 1150 3584 1784 3584 
Q 2172 3584 2448 3432 
Q 2725 3281 2906 2969 
L 2906 3500 
L 3481 3500 
L 3481 -1331 
L 2906 -1331 
L 2906 525 
z
" transform="scale(0.015625)"/>
        <path id="DejaVuSans-6b" d="M 581 4863 
L 1159 4863 
L 1159 1991 
L 2875 3500 
L 3609 3500 
L 1753 1863 
L 3688 0 
L 2938 0 
L 1159 1709 
L 1159 0 
L 581 0 
L 581 4863 
z
" transform="scale(0.015625)"/>
       </defs>
       <use xlink:href="#DejaVuSans-71"/>
       <use xlink:href="#DejaVuSans-6b" x="63.476562"/>
       <use xlink:href="#DejaVuSans-6e" x="121.386719"/>
       <use xlink:href="#DejaVuSans-6e" x="184.765625"/>
      </g>
     </g>
    </g>
    <g id="xtick_4">
     <g id="line2d_4">
      <g>
       <use xlink:href="#m9f288c7bc0" x="351.194805" y="640.8" style="stroke: #000000; stroke-width: 0.8"/>
      </g>
     </g>
     <g id="text_4">
      <!-- qsvm -->
      <g transform="translate(337.586211 655.398438) scale(0.1 -0.1)">
       <defs>
        <path id="DejaVuSans-76" d="M 191 3500 
L 800 3500 
L 1894 563 
L 2988 3500 
L 3597 3500 
L 2284 0 
L 1503 0 
L 191 3500 
z
" transform="scale(0.015625)"/>
       </defs>
       <use xlink:href="#DejaVuSans-71"/>
       <use xlink:href="#DejaVuSans-73" x="63.476562"/>
       <use xlink:href="#DejaVuSans-76" x="115.576172"/>
       <use xlink:href="#DejaVuSans-6d" x="174.755859"/>
      </g>
     </g>
    </g>
    <g id="xtick_5">
     <g id="line2d_5">
      <g>
       <use xlink:href="#m9f288c7bc0" x="411.584416" y="640.8" style="stroke: #000000; stroke-width: 0.8"/>
      </g>
     </g>
     <g id="text_5">
      <!-- qft -->
      <g transform="translate(404.777384 655.398438) scale(0.1 -0.1)">
       <defs>
        <path id="DejaVuSans-66" d="M 2375 4863 
L 2375 4384 
L 1825 4384 
Q 1516 4384 1395 4259 
Q 1275 4134 1275 3809 
L 1275 3500 
L 2222 3500 
L 2222 3053 
L 1275 3053 
L 1275 0 
L 697 0 
L 697 3053 
L 147 3053 
L 147 3500 
L 697 3500 
L 697 3744 
Q 697 4328 969 4595 
Q 1241 4863 1831 4863 
L 2375 4863 
z
" transform="scale(0.015625)"/>
       </defs>
       <use xlink:href="#DejaVuSans-71"/>
       <use xlink:href="#DejaVuSans-66" x="63.476562"/>
       <use xlink:href="#DejaVuSans-74" x="96.931641"/>
      </g>
     </g>
    </g>
    <g id="xtick_6">
     <g id="line2d_6">
      <g>
       <use xlink:href="#m9f288c7bc0" x="471.974026" y="640.8" style="stroke: #000000; stroke-width: 0.8"/>
      </g>
     </g>
     <g id="text_6">
      <!-- ghz -->
      <g transform="translate(463.006838 655.398438) scale(0.1 -0.1)">
       <defs>
        <path id="DejaVuSans-7a" d="M 353 3500 
L 3084 3500 
L 3084 2975 
L 922 459 
L 3084 459 
L 3084 0 
L 275 0 
L 275 525 
L 2438 3041 
L 353 3041 
L 353 3500 
z
" transform="scale(0.015625)"/>
       </defs>
       <use xlink:href="#DejaVuSans-67"/>
       <use xlink:href="#DejaVuSans-68" x="63.476562"/>
       <use xlink:href="#DejaVuSans-7a" x="126.855469"/>
      </g>
     </g>
    </g>
    <g id="xtick_7">
     <g id="line2d_7">
      <g>
       <use xlink:href="#m9f288c7bc0" x="532.363636" y="640.8" style="stroke: #000000; stroke-width: 0.8"/>
      </g>
     </g>
     <g id="text_7">
      <!-- bernstein_vazirani -->
      <g transform="translate(486.562855 655.398438) scale(0.1 -0.1)">
       <defs>
        <path id="DejaVuSans-62" d="M 3116 1747 
Q 3116 2381 2855 2742 
Q 2594 3103 2138 3103 
Q 1681 3103 1420 2742 
Q 1159 2381 1159 1747 
Q 1159 1113 1420 752 
Q 1681 391 2138 391 
Q 2594 391 2855 752 
Q 3116 1113 3116 1747 
z
M 1159 2969 
Q 1341 3281 1617 3432 
Q 1894 3584 2278 3584 
Q 2916 3584 3314 3078 
Q 3713 2572 3713 1747 
Q 3713 922 3314 415 
Q 2916 -91 2278 -91 
Q 1894 -91 1617 61 
Q 1341 213 1159 525 
L 1159 0 
L 581 0 
L 581 4863 
L 1159 4863 
L 1159 2969 
z
" transform="scale(0.015625)"/>
        <path id="DejaVuSans-65" d="M 3597 1894 
L 3597 1613 
L 953 1613 
Q 991 1019 1311 708 
Q 1631 397 2203 397 
Q 2534 397 2845 478 
Q 3156 559 3463 722 
L 3463 178 
Q 3153 47 2828 -22 
Q 2503 -91 2169 -91 
Q 1331 -91 842 396 
Q 353 884 353 1716 
Q 353 2575 817 3079 
Q 1281 3584 2069 3584 
Q 2775 3584 3186 3129 
Q 3597 2675 3597 1894 
z
M 3022 2063 
Q 3016 2534 2758 2815 
Q 2500 3097 2075 3097 
Q 1594 3097 1305 2825 
Q 1016 2553 972 2059 
L 3022 2063 
z
" transform="scale(0.015625)"/>
        <path id="DejaVuSans-72" d="M 2631 2963 
Q 2534 3019 2420 3045 
Q 2306 3072 2169 3072 
Q 1681 3072 1420 2755 
Q 1159 2438 1159 1844 
L 1159 0 
L 581 0 
L 581 3500 
L 1159 3500 
L 1159 2956 
Q 1341 3275 1631 3429 
Q 1922 3584 2338 3584 
Q 2397 3584 2469 3576 
Q 2541 3569 2628 3553 
L 2631 2963 
z
" transform="scale(0.015625)"/>
       </defs>
       <use xlink:href="#DejaVuSans-62"/>
       <use xlink:href="#DejaVuSans-65" x="63.476562"/>
       <use xlink:href="#DejaVuSans-72" x="125"/>
       <use xlink:href="#DejaVuSans-6e" x="164.363281"/>
       <use xlink:href="#DejaVuSans-73" x="227.742188"/>
       <use xlink:href="#DejaVuSans-74" x="279.841797"/>
       <use xlink:href="#DejaVuSans-65" x="319.050781"/>
       <use xlink:href="#DejaVuSans-69" x="380.574219"/>
       <use xlink:href="#DejaVuSans-6e" x="408.357422"/>
       <use xlink:href="#DejaVuSans-5f" x="471.736328"/>
       <use xlink:href="#DejaVuSans-76" x="521.736328"/>
       <use xlink:href="#DejaVuSans-61" x="580.916016"/>
       <use xlink:href="#DejaVuSans-7a" x="642.195312"/>
       <use xlink:href="#DejaVuSans-69" x="694.685547"/>
       <use xlink:href="#DejaVuSans-72" x="722.46875"/>
       <use xlink:href="#DejaVuSans-61" x="763.582031"/>
       <use xlink:href="#DejaVuSans-6e" x="824.861328"/>
       <use xlink:href="#DejaVuSans-69" x="888.240234"/>
      </g>
     </g>
    </g>
    <g id="xtick_8">
     <g id="line2d_8">
      <g>
       <use xlink:href="#m9f288c7bc0" x="592.753247" y="640.8" style="stroke: #000000; stroke-width: 0.8"/>
      </g>
     </g>
     <g id="text_8">
      <!-- deutsch_jozsa -->
      <g transform="translate(557.609497 655.398438) scale(0.1 -0.1)">
       <defs>
        <path id="DejaVuSans-64" d="M 2906 2969 
L 2906 4863 
L 3481 4863 
L 3481 0 
L 2906 0 
L 2906 525 
Q 2725 213 2448 61 
Q 2172 -91 1784 -91 
Q 1150 -91 751 415 
Q 353 922 353 1747 
Q 353 2572 751 3078 
Q 1150 3584 1784 3584 
Q 2172 3584 2448 3432 
Q 2725 3281 2906 2969 
z
M 947 1747 
Q 947 1113 1208 752 
Q 1469 391 1925 391 
Q 2381 391 2643 752 
Q 2906 1113 2906 1747 
Q 2906 2381 2643 2742 
Q 2381 3103 1925 3103 
Q 1469 3103 1208 2742 
Q 947 2381 947 1747 
z
" transform="scale(0.015625)"/>
        <path id="DejaVuSans-63" d="M 3122 3366 
L 3122 2828 
Q 2878 2963 2633 3030 
Q 2388 3097 2138 3097 
Q 1578 3097 1268 2742 
Q 959 2388 959 1747 
Q 959 1106 1268 751 
Q 1578 397 2138 397 
Q 2388 397 2633 464 
Q 2878 531 3122 666 
L 3122 134 
Q 2881 22 2623 -34 
Q 2366 -91 2075 -91 
Q 1284 -91 818 406 
Q 353 903 353 1747 
Q 353 2603 823 3093 
Q 1294 3584 2113 3584 
Q 2378 3584 2631 3529 
Q 2884 3475 3122 3366 
z
" transform="scale(0.015625)"/>
        <path id="DejaVuSans-6a" d="M 603 3500 
L 1178 3500 
L 1178 -63 
Q 1178 -731 923 -1031 
Q 669 -1331 103 -1331 
L -116 -1331 
L -116 -844 
L 38 -844 
Q 366 -844 484 -692 
Q 603 -541 603 -63 
L 603 3500 
z
M 603 4863 
L 1178 4863 
L 1178 4134 
L 603 4134 
L 603 4863 
z
" transform="scale(0.015625)"/>
       </defs>
       <use xlink:href="#DejaVuSans-64"/>
       <use xlink:href="#DejaVuSans-65" x="63.476562"/>
       <use xlink:href="#DejaVuSans-75" x="125"/>
       <use xlink:href="#DejaVuSans-74" x="188.378906"/>
       <use xlink:href="#DejaVuSans-73" x="227.587891"/>
       <use xlink:href="#DejaVuSans-63" x="279.6875"/>
       <use xlink:href="#DejaVuSans-68" x="334.667969"/>
       <use xlink:href="#DejaVuSans-5f" x="398.046875"/>
       <use xlink:href="#DejaVuSans-6a" x="448.046875"/>
       <use xlink:href="#DejaVuSans-6f" x="475.830078"/>
       <use xlink:href="#DejaVuSans-7a" x="537.011719"/>
       <use xlink:href="#DejaVuSans-73" x="589.501953"/>
       <use xlink:href="#DejaVuSans-61" x="641.601562"/>
      </g>
     </g>
    </g>
    <g id="xtick_9">
     <g id="line2d_9">
      <g>
       <use xlink:href="#m9f288c7bc0" x="653.142857" y="640.8" style="stroke: #000000; stroke-width: 0.8"/>
      </g>
     </g>
     <g id="text_9">
      <!-- qec_5_x -->
      <g transform="translate(633.002232 655.120312) scale(0.1 -0.1)">
       <defs>
        <path id="DejaVuSans-35" d="M 691 4666 
L 3169 4666 
L 3169 4134 
L 1269 4134 
L 1269 2991 
Q 1406 3038 1543 3061 
Q 1681 3084 1819 3084 
Q 2600 3084 3056 2656 
Q 3513 2228 3513 1497 
Q 3513 744 3044 326 
Q 2575 -91 1722 -91 
Q 1428 -91 1123 -41 
Q 819 9 494 109 
L 494 744 
Q 775 591 1075 516 
Q 1375 441 1709 441 
Q 2250 441 2565 725 
Q 2881 1009 2881 1497 
Q 2881 1984 2565 2268 
Q 2250 2553 1709 2553 
Q 1456 2553 1204 2497 
Q 953 2441 691 2322 
L 691 4666 
z
" transform="scale(0.015625)"/>
        <path id="DejaVuSans-78" d="M 3513 3500 
L 2247 1797 
L 3578 0 
L 2900 0 
L 1881 1375 
L 863 0 
L 184 0 
L 1544 1831 
L 300 3500 
L 978 3500 
L 1906 2253 
L 2834 3500 
L 3513 3500 
z
" transform="scale(0.015625)"/>
       </defs>
       <use xlink:href="#DejaVuSans-71"/>
       <use xlink:href="#DejaVuSans-65" x="63.476562"/>
       <use xlink:href="#DejaVuSans-63" x="125"/>
       <use xlink:href="#DejaVuSans-5f" x="179.980469"/>
       <use xlink:href="#DejaVuSans-35" x="229.980469"/>
       <use xlink:href="#DejaVuSans-5f" x="293.603516"/>
       <use xlink:href="#DejaVuSans-78" x="343.603516"/>
      </g>
     </g>
    </g>
    <g id="xtick_10">
     <g id="line2d_10">
      <g>
       <use xlink:href="#m9f288c7bc0" x="713.532468" y="640.8" style="stroke: #000000; stroke-width: 0.8"/>
      </g>
     </g>
     <g id="text_10">
      <!-- multiplier -->
      <g transform="translate(689.670749 655.398438) scale(0.1 -0.1)">
       <defs>
        <path id="DejaVuSans-70" d="M 1159 525 
L 1159 -1331 
L 581 -1331 
L 581 3500 
L 1159 3500 
L 1159 2969 
Q 1341 3281 1617 3432 
Q 1894 3584 2278 3584 
Q 2916 3584 3314 3078 
Q 3713 2572 3713 1747 
Q 3713 922 3314 415 
Q 2916 -91 2278 -91 
Q 1894 -91 1617 61 
Q 1341 213 1159 525 
z
M 3116 1747 
Q 3116 2381 2855 2742 
Q 2594 3103 2138 3103 
Q 1681 3103 1420 2742 
Q 1159 2381 1159 1747 
Q 1159 1113 1420 752 
Q 1681 391 2138 391 
Q 2594 391 2855 752 
Q 3116 1113 3116 1747 
z
" transform="scale(0.015625)"/>
       </defs>
       <use xlink:href="#DejaVuSans-6d"/>
       <use xlink:href="#DejaVuSans-75" x="97.412109"/>
       <use xlink:href="#DejaVuSans-6c" x="160.791016"/>
       <use xlink:href="#DejaVuSans-74" x="188.574219"/>
       <use xlink:href="#DejaVuSans-69" x="227.783203"/>
       <use xlink:href="#DejaVuSans-70" x="255.566406"/>
       <use xlink:href="#DejaVuSans-6c" x="319.042969"/>
       <use xlink:href="#DejaVuSans-69" x="346.826172"/>
       <use xlink:href="#DejaVuSans-65" x="374.609375"/>
       <use xlink:href="#DejaVuSans-72" x="436.132812"/>
      </g>
     </g>
    </g>
    <g id="xtick_11">
     <g id="line2d_11">
      <g>
       <use xlink:href="#m9f288c7bc0" x="773.922078" y="640.8" style="stroke: #000000; stroke-width: 0.8"/>
      </g>
     </g>
     <g id="text_11">
      <!-- qnn -->
      <g transform="translate(764.410359 655.398438) scale(0.1 -0.1)">
       <use xlink:href="#DejaVuSans-71"/>
       <use xlink:href="#DejaVuSans-6e" x="63.476562"/>
       <use xlink:href="#DejaVuSans-6e" x="126.855469"/>
      </g>
     </g>
    </g>
    <g id="xtick_12">
     <g id="line2d_12">
      <g>
       <use xlink:href="#m9f288c7bc0" x="834.311688" y="640.8" style="stroke: #000000; stroke-width: 0.8"/>
      </g>
     </g>
     <g id="text_12">
      <!-- qugan -->
      <g transform="translate(818.561688 655.398438) scale(0.1 -0.1)">
       <use xlink:href="#DejaVuSans-71"/>
       <use xlink:href="#DejaVuSans-75" x="63.476562"/>
       <use xlink:href="#DejaVuSans-67" x="126.855469"/>
       <use xlink:href="#DejaVuSans-61" x="190.332031"/>
       <use xlink:href="#DejaVuSans-6e" x="251.611328"/>
      </g>
     </g>
    </g>
    <g id="xtick_13">
     <g id="line2d_13">
      <g>
       <use xlink:href="#m9f288c7bc0" x="894.701299" y="640.8" style="stroke: #000000; stroke-width: 0.8"/>
      </g>
     </g>
     <g id="text_13">
      <!-- swap -->
      <g transform="translate(881.769267 655.398438) scale(0.1 -0.1)">
       <defs>
        <path id="DejaVuSans-77" d="M 269 3500 
L 844 3500 
L 1563 769 
L 2278 3500 
L 2956 3500 
L 3675 769 
L 4391 3500 
L 4966 3500 
L 4050 0 
L 3372 0 
L 2619 2869 
L 1863 0 
L 1184 0 
L 269 3500 
z
" transform="scale(0.015625)"/>
       </defs>
       <use xlink:href="#DejaVuSans-73"/>
       <use xlink:href="#DejaVuSans-77" x="52.099609"/>
       <use xlink:href="#DejaVuSans-61" x="133.886719"/>
       <use xlink:href="#DejaVuSans-70" x="195.166016"/>
      </g>
     </g>
    </g>
   </g>
   <g id="matplotlib.axis_2">
    <g id="ytick_1">
     <g id="line2d_14">
      <defs>
       <path id="mdce00a9244" d="M 0 0 
L -3.5 0 
" style="stroke: #000000; stroke-width: 0.8"/>
      </defs>
      <g>
       <use xlink:href="#mdce00a9244" x="135" y="640.8" style="stroke: #000000; stroke-width: 0.8"/>
      </g>
     </g>
     <g id="text_14">
      <!-- 0.0 -->
      <g transform="translate(112.096875 644.599219) scale(0.1 -0.1)">
       <defs>
        <path id="DejaVuSans-30" d="M 2034 4250 
Q 1547 4250 1301 3770 
Q 1056 3291 1056 2328 
Q 1056 1369 1301 889 
Q 1547 409 2034 409 
Q 2525 409 2770 889 
Q 3016 1369 3016 2328 
Q 3016 3291 2770 3770 
Q 2525 4250 2034 4250 
z
M 2034 4750 
Q 2819 4750 3233 4129 
Q 3647 3509 3647 2328 
Q 3647 1150 3233 529 
Q 2819 -91 2034 -91 
Q 1250 -91 836 529 
Q 422 1150 422 2328 
Q 422 3509 836 4129 
Q 1250 4750 2034 4750 
z
" transform="scale(0.015625)"/>
        <path id="DejaVuSans-2e" d="M 684 794 
L 1344 794 
L 1344 0 
L 684 0 
L 684 794 
z
" transform="scale(0.015625)"/>
       </defs>
       <use xlink:href="#DejaVuSans-30"/>
       <use xlink:href="#DejaVuSans-2e" x="63.623047"/>
       <use xlink:href="#DejaVuSans-30" x="95.410156"/>
      </g>
     </g>
    </g>
    <g id="ytick_2">
     <g id="line2d_15">
      <g>
       <use xlink:href="#mdce00a9244" x="135" y="574.527469" style="stroke: #000000; stroke-width: 0.8"/>
      </g>
     </g>
     <g id="text_15">
      <!-- 2.5 -->
      <g transform="translate(112.096875 578.326688) scale(0.1 -0.1)">
       <defs>
        <path id="DejaVuSans-32" d="M 1228 531 
L 3431 531 
L 3431 0 
L 469 0 
L 469 531 
Q 828 903 1448 1529 
Q 2069 2156 2228 2338 
Q 2531 2678 2651 2914 
Q 2772 3150 2772 3378 
Q 2772 3750 2511 3984 
Q 2250 4219 1831 4219 
Q 1534 4219 1204 4116 
Q 875 4013 500 3803 
L 500 4441 
Q 881 4594 1212 4672 
Q 1544 4750 1819 4750 
Q 2544 4750 2975 4387 
Q 3406 4025 3406 3419 
Q 3406 3131 3298 2873 
Q 3191 2616 2906 2266 
Q 2828 2175 2409 1742 
Q 1991 1309 1228 531 
z
" transform="scale(0.015625)"/>
       </defs>
       <use xlink:href="#DejaVuSans-32"/>
       <use xlink:href="#DejaVuSans-2e" x="63.623047"/>
       <use xlink:href="#DejaVuSans-35" x="95.410156"/>
      </g>
     </g>
    </g>
    <g id="ytick_3">
     <g id="line2d_16">
      <g>
       <use xlink:href="#mdce00a9244" x="135" y="508.254939" style="stroke: #000000; stroke-width: 0.8"/>
      </g>
     </g>
     <g id="text_16">
      <!-- 5.0 -->
      <g transform="translate(112.096875 512.054157) scale(0.1 -0.1)">
       <use xlink:href="#DejaVuSans-35"/>
       <use xlink:href="#DejaVuSans-2e" x="63.623047"/>
       <use xlink:href="#DejaVuSans-30" x="95.410156"/>
      </g>
     </g>
    </g>
    <g id="ytick_4">
     <g id="line2d_17">
      <g>
       <use xlink:href="#mdce00a9244" x="135" y="441.982408" style="stroke: #000000; stroke-width: 0.8"/>
      </g>
     </g>
     <g id="text_17">
      <!-- 7.5 -->
      <g transform="translate(112.096875 445.781627) scale(0.1 -0.1)">
       <defs>
        <path id="DejaVuSans-37" d="M 525 4666 
L 3525 4666 
L 3525 4397 
L 1831 0 
L 1172 0 
L 2766 4134 
L 525 4134 
L 525 4666 
z
" transform="scale(0.015625)"/>
       </defs>
       <use xlink:href="#DejaVuSans-37"/>
       <use xlink:href="#DejaVuSans-2e" x="63.623047"/>
       <use xlink:href="#DejaVuSans-35" x="95.410156"/>
      </g>
     </g>
    </g>
    <g id="ytick_5">
     <g id="line2d_18">
      <g>
       <use xlink:href="#mdce00a9244" x="135" y="375.709877" style="stroke: #000000; stroke-width: 0.8"/>
      </g>
     </g>
     <g id="text_18">
      <!-- 10.0 -->
      <g transform="translate(105.734375 379.509096) scale(0.1 -0.1)">
       <defs>
        <path id="DejaVuSans-31" d="M 794 531 
L 1825 531 
L 1825 4091 
L 703 3866 
L 703 4441 
L 1819 4666 
L 2450 4666 
L 2450 531 
L 3481 531 
L 3481 0 
L 794 0 
L 794 531 
z
" transform="scale(0.015625)"/>
       </defs>
       <use xlink:href="#DejaVuSans-31"/>
       <use xlink:href="#DejaVuSans-30" x="63.623047"/>
       <use xlink:href="#DejaVuSans-2e" x="127.246094"/>
       <use xlink:href="#DejaVuSans-30" x="159.033203"/>
      </g>
     </g>
    </g>
    <g id="ytick_6">
     <g id="line2d_19">
      <g>
       <use xlink:href="#mdce00a9244" x="135" y="309.437347" style="stroke: #000000; stroke-width: 0.8"/>
      </g>
     </g>
     <g id="text_19">
      <!-- 12.5 -->
      <g transform="translate(105.734375 313.236566) scale(0.1 -0.1)">
       <use xlink:href="#DejaVuSans-31"/>
       <use xlink:href="#DejaVuSans-32" x="63.623047"/>
       <use xlink:href="#DejaVuSans-2e" x="127.246094"/>
       <use xlink:href="#DejaVuSans-35" x="159.033203"/>
      </g>
     </g>
    </g>
    <g id="ytick_7">
     <g id="line2d_20">
      <g>
       <use xlink:href="#mdce00a9244" x="135" y="243.164816" style="stroke: #000000; stroke-width: 0.8"/>
      </g>
     </g>
     <g id="text_20">
      <!-- 15.0 -->
      <g transform="translate(105.734375 246.964035) scale(0.1 -0.1)">
       <use xlink:href="#DejaVuSans-31"/>
       <use xlink:href="#DejaVuSans-35" x="63.623047"/>
       <use xlink:href="#DejaVuSans-2e" x="127.246094"/>
       <use xlink:href="#DejaVuSans-30" x="159.033203"/>
      </g>
     </g>
    </g>
    <g id="ytick_8">
     <g id="line2d_21">
      <g>
       <use xlink:href="#mdce00a9244" x="135" y="176.892286" style="stroke: #000000; stroke-width: 0.8"/>
      </g>
     </g>
     <g id="text_21">
      <!-- 17.5 -->
      <g transform="translate(105.734375 180.691504) scale(0.1 -0.1)">
       <use xlink:href="#DejaVuSans-31"/>
       <use xlink:href="#DejaVuSans-37" x="63.623047"/>
       <use xlink:href="#DejaVuSans-2e" x="127.246094"/>
       <use xlink:href="#DejaVuSans-35" x="159.033203"/>
      </g>
     </g>
    </g>
    <g id="ytick_9">
     <g id="line2d_22">
      <g>
       <use xlink:href="#mdce00a9244" x="135" y="110.619755" style="stroke: #000000; stroke-width: 0.8"/>
      </g>
     </g>
     <g id="text_22">
      <!-- 20.0 -->
      <g transform="translate(105.734375 114.418974) scale(0.1 -0.1)">
       <use xlink:href="#DejaVuSans-32"/>
       <use xlink:href="#DejaVuSans-30" x="63.623047"/>
       <use xlink:href="#DejaVuSans-2e" x="127.246094"/>
       <use xlink:href="#DejaVuSans-30" x="159.033203"/>
      </g>
     </g>
    </g>
   </g>
   <g id="patch_81">
    <path d="M 135 640.8 
L 135 86.4 
" style="fill: none; stroke: #000000; stroke-width: 0.8; stroke-linejoin: miter; stroke-linecap: square"/>
   </g>
   <g id="patch_82">
    <path d="M 972 640.8 
L 972 86.4 
" style="fill: none; stroke: #000000; stroke-width: 0.8; stroke-linejoin: miter; stroke-linecap: square"/>
   </g>
   <g id="patch_83">
    <path d="M 135 640.8 
L 972 640.8 
" style="fill: none; stroke: #000000; stroke-width: 0.8; stroke-linejoin: miter; stroke-linecap: square"/>
   </g>
   <g id="patch_84">
    <path d="M 135 86.4 
L 972 86.4 
" style="fill: none; stroke: #000000; stroke-width: 0.8; stroke-linejoin: miter; stroke-linecap: square"/>
   </g>
  </g>
  <g id="legend_1">
   <g id="patch_85">
    <path d="M 924.83125 97.7375 
L 1073 97.7375 
Q 1075 97.7375 1075 95.7375 
L 1075 7 
Q 1075 5 1073 5 
L 924.83125 5 
Q 922.83125 5 922.83125 7 
L 922.83125 95.7375 
Q 922.83125 97.7375 924.83125 97.7375 
z
" style="fill: #ffffff; opacity: 0.8; stroke: #cccccc; stroke-linejoin: miter"/>
   </g>
   <g id="patch_86">
    <path d="M 926.83125 16.598437 
L 946.83125 16.598437 
L 946.83125 9.598437 
L 926.83125 9.598437 
z
" style="fill: #1f77b4"/>
   </g>
   <g id="text_23">
    <!-- reals_routing -->
    <g transform="translate(954.83125 16.598437) scale(0.1 -0.1)">
     <use xlink:href="#DejaVuSans-72"/>
     <use xlink:href="#DejaVuSans-65" x="38.863281"/>
     <use xlink:href="#DejaVuSans-61" x="100.386719"/>
     <use xlink:href="#DejaVuSans-6c" x="161.666016"/>
     <use xlink:href="#DejaVuSans-73" x="189.449219"/>
     <use xlink:href="#DejaVuSans-5f" x="241.548828"/>
     <use xlink:href="#DejaVuSans-72" x="291.548828"/>
     <use xlink:href="#DejaVuSans-6f" x="330.412109"/>
     <use xlink:href="#DejaVuSans-75" x="391.59375"/>
     <use xlink:href="#DejaVuSans-74" x="454.972656"/>
     <use xlink:href="#DejaVuSans-69" x="494.181641"/>
     <use xlink:href="#DejaVuSans-6e" x="521.964844"/>
     <use xlink:href="#DejaVuSans-67" x="585.34375"/>
    </g>
   </g>
   <g id="patch_87">
    <path d="M 926.83125 31.554687 
L 946.83125 31.554687 
L 946.83125 24.554687 
L 926.83125 24.554687 
z
" style="fill: #ff7f0e"/>
   </g>
   <g id="text_24">
    <!-- reals_schedule -->
    <g transform="translate(954.83125 31.554687) scale(0.1 -0.1)">
     <use xlink:href="#DejaVuSans-72"/>
     <use xlink:href="#DejaVuSans-65" x="38.863281"/>
     <use xlink:href="#DejaVuSans-61" x="100.386719"/>
     <use xlink:href="#DejaVuSans-6c" x="161.666016"/>
     <use xlink:href="#DejaVuSans-73" x="189.449219"/>
     <use xlink:href="#DejaVuSans-5f" x="241.548828"/>
     <use xlink:href="#DejaVuSans-73" x="291.548828"/>
     <use xlink:href="#DejaVuSans-63" x="343.648438"/>
     <use xlink:href="#DejaVuSans-68" x="398.628906"/>
     <use xlink:href="#DejaVuSans-65" x="462.007812"/>
     <use xlink:href="#DejaVuSans-64" x="523.53125"/>
     <use xlink:href="#DejaVuSans-75" x="587.007812"/>
     <use xlink:href="#DejaVuSans-6c" x="650.386719"/>
     <use xlink:href="#DejaVuSans-65" x="678.169922"/>
    </g>
   </g>
   <g id="patch_88">
    <path d="M 926.83125 46.510937 
L 946.83125 46.510937 
L 946.83125 39.510937 
L 926.83125 39.510937 
z
" style="fill: #2ca02c"/>
   </g>
   <g id="text_25">
    <!-- reals_routing_schedule -->
    <g transform="translate(954.83125 46.510937) scale(0.1 -0.1)">
     <use xlink:href="#DejaVuSans-72"/>
     <use xlink:href="#DejaVuSans-65" x="38.863281"/>
     <use xlink:href="#DejaVuSans-61" x="100.386719"/>
     <use xlink:href="#DejaVuSans-6c" x="161.666016"/>
     <use xlink:href="#DejaVuSans-73" x="189.449219"/>
     <use xlink:href="#DejaVuSans-5f" x="241.548828"/>
     <use xlink:href="#DejaVuSans-72" x="291.548828"/>
     <use xlink:href="#DejaVuSans-6f" x="330.412109"/>
     <use xlink:href="#DejaVuSans-75" x="391.59375"/>
     <use xlink:href="#DejaVuSans-74" x="454.972656"/>
     <use xlink:href="#DejaVuSans-69" x="494.181641"/>
     <use xlink:href="#DejaVuSans-6e" x="521.964844"/>
     <use xlink:href="#DejaVuSans-67" x="585.34375"/>
     <use xlink:href="#DejaVuSans-5f" x="648.820312"/>
     <use xlink:href="#DejaVuSans-73" x="698.820312"/>
     <use xlink:href="#DejaVuSans-63" x="750.919922"/>
     <use xlink:href="#DejaVuSans-68" x="805.900391"/>
     <use xlink:href="#DejaVuSans-65" x="869.279297"/>
     <use xlink:href="#DejaVuSans-64" x="930.802734"/>
     <use xlink:href="#DejaVuSans-75" x="994.279297"/>
     <use xlink:href="#DejaVuSans-6c" x="1057.658203"/>
     <use xlink:href="#DejaVuSans-65" x="1085.441406"/>
    </g>
   </g>
   <g id="patch_89">
    <path d="M 926.83125 61.467187 
L 946.83125 61.467187 
L 946.83125 54.467187 
L 926.83125 54.467187 
z
" style="fill: #d62728"/>
   </g>
   <g id="text_26">
    <!-- reals_satmap -->
    <g transform="translate(954.83125 61.467187) scale(0.1 -0.1)">
     <use xlink:href="#DejaVuSans-72"/>
     <use xlink:href="#DejaVuSans-65" x="38.863281"/>
     <use xlink:href="#DejaVuSans-61" x="100.386719"/>
     <use xlink:href="#DejaVuSans-6c" x="161.666016"/>
     <use xlink:href="#DejaVuSans-73" x="189.449219"/>
     <use xlink:href="#DejaVuSans-5f" x="241.548828"/>
     <use xlink:href="#DejaVuSans-73" x="291.548828"/>
     <use xlink:href="#DejaVuSans-61" x="343.648438"/>
     <use xlink:href="#DejaVuSans-74" x="404.927734"/>
     <use xlink:href="#DejaVuSans-6d" x="444.136719"/>
     <use xlink:href="#DejaVuSans-61" x="541.548828"/>
     <use xlink:href="#DejaVuSans-70" x="602.828125"/>
    </g>
   </g>
   <g id="patch_90">
    <path d="M 926.83125 76.423437 
L 946.83125 76.423437 
L 946.83125 69.423437 
L 926.83125 69.423437 
z
" style="fill: #9467bd"/>
   </g>
   <g id="text_27">
    <!-- reals_crosstalk -->
    <g transform="translate(954.83125 76.423437) scale(0.1 -0.1)">
     <use xlink:href="#DejaVuSans-72"/>
     <use xlink:href="#DejaVuSans-65" x="38.863281"/>
     <use xlink:href="#DejaVuSans-61" x="100.386719"/>
     <use xlink:href="#DejaVuSans-6c" x="161.666016"/>
     <use xlink:href="#DejaVuSans-73" x="189.449219"/>
     <use xlink:href="#DejaVuSans-5f" x="241.548828"/>
     <use xlink:href="#DejaVuSans-63" x="291.548828"/>
     <use xlink:href="#DejaVuSans-72" x="346.529297"/>
     <use xlink:href="#DejaVuSans-6f" x="385.392578"/>
     <use xlink:href="#DejaVuSans-73" x="446.574219"/>
     <use xlink:href="#DejaVuSans-73" x="498.673828"/>
     <use xlink:href="#DejaVuSans-74" x="550.773438"/>
     <use xlink:href="#DejaVuSans-61" x="589.982422"/>
     <use xlink:href="#DejaVuSans-6c" x="651.261719"/>
     <use xlink:href="#DejaVuSans-6b" x="679.044922"/>
    </g>
   </g>
   <g id="patch_91">
    <path d="M 926.83125 91.379687 
L 946.83125 91.379687 
L 946.83125 84.379687 
L 926.83125 84.379687 
z
" style="fill: #8c564b"/>
   </g>
   <g id="text_28">
    <!-- reals_satmap_crosstalk -->
    <g transform="translate(954.83125 91.379687) scale(0.1 -0.1)">
     <use xlink:href="#DejaVuSans-72"/>
     <use xlink:href="#DejaVuSans-65" x="38.863281"/>
     <use xlink:href="#DejaVuSans-61" x="100.386719"/>
     <use xlink:href="#DejaVuSans-6c" x="161.666016"/>
     <use xlink:href="#DejaVuSans-73" x="189.449219"/>
     <use xlink:href="#DejaVuSans-5f" x="241.548828"/>
     <use xlink:href="#DejaVuSans-73" x="291.548828"/>
     <use xlink:href="#DejaVuSans-61" x="343.648438"/>
     <use xlink:href="#DejaVuSans-74" x="404.927734"/>
     <use xlink:href="#DejaVuSans-6d" x="444.136719"/>
     <use xlink:href="#DejaVuSans-61" x="541.548828"/>
     <use xlink:href="#DejaVuSans-70" x="602.828125"/>
     <use xlink:href="#DejaVuSans-5f" x="666.304688"/>
     <use xlink:href="#DejaVuSans-63" x="716.304688"/>
     <use xlink:href="#DejaVuSans-72" x="771.285156"/>
     <use xlink:href="#DejaVuSans-6f" x="810.148438"/>
     <use xlink:href="#DejaVuSans-73" x="871.330078"/>
     <use xlink:href="#DejaVuSans-73" x="923.429688"/>
     <use xlink:href="#DejaVuSans-74" x="975.529297"/>
     <use xlink:href="#DejaVuSans-61" x="1014.738281"/>
     <use xlink:href="#DejaVuSans-6c" x="1076.017578"/>
     <use xlink:href="#DejaVuSans-6b" x="1103.800781"/>
    </g>
   </g>
  </g>
 </g>
 <defs>
  <clipPath id="p7c00fbafc7">
   <rect x="135" y="86.4" width="837" height="554.4"/>
  </clipPath>
 </defs>
</svg>
